  <svg style="display: none;">
    <symbol viewBox="0 0 101 18" id="icon-logo-name" fill="currentColor" xmlns="http://www.w3.org/2000/svg">
      <g clip-path="url(#a)" fill="#111">
        <path
          d="M1.26 16.54A6.86 6.86 0 0 1 0 12.24v-6.4C-.1 4.3.3 2.77 1.19 1.47 2.05.46 3.39 0 5.37 0 7.35 0 8.61.46 9.4 1.3a5.42 5.42 0 0 1 1.19 3.78v1.54H6.72V4.85a3.7 3.7 0 0 0-.24-1.54 1.16 1.16 0 0 0-1.1-.62c-.56 0-.95.16-1.11.54a4.85 4.85 0 0 0-.24 1.7v8.22c-.04.56.07 1.12.32 1.62.15.38.55.54 1.1.54.56 0 .87-.16 1.03-.54.18-.52.26-1.07.24-1.62v-1.84h3.87v1.54a5.77 5.77 0 0 1-1.19 3.84c-.79.93-2.13 1.39-4.03 1.39-1.9-.08-3.32-.54-4.1-1.54ZM15.25.23h4.5l3.33 17.54h-3.64l-.63-3.7h-2.6l-.64 3.7h-3.72L15.25.23Zm3.24 11.54-.95-6.85-.94 6.85h1.9ZM25.84 3.15h-2.68V.23h9.4v2.85h-2.69v14.69h-4.03V3.15ZM39.75.23h6.96v1.85h-4.5v5.77h3.63v1.77H42.2v6.46h4.5v1.77h-7.03V.23h.08ZM48.76.23h1.74l5.14 11.62V.23h2.05v17.54h-1.58l-5.21-12v12h-2.14V.23ZM60.06.23h6.96v1.85h-4.5v5.77h3.63v1.77H62.5v6.46h4.5v1.77h-6.95V.23ZM69.07.23h3.64c1.43-.1 2.85.28 4.03 1.08C77.6 2 78 3.23 78 4.85c0 2.23-.7 3.61-2.21 4.07l2.53 8.77h-2.45L73.5 9.46h-1.98v8.23H69V.23h.08Zm3.48 7.54c.81.06 1.63-.15 2.3-.62.47-.38.7-1.15.7-2.3a4.85 4.85 0 0 0-.23-1.7c-.18-.39-.49-.71-.87-.92a3.69 3.69 0 0 0-1.74-.3h-1.1v5.76h.94v.08ZM81.16 16.46a7.61 7.61 0 0 1-1.1-4.46V6.15c-.02-1.11.11-2.22.4-3.3.26-.81.78-1.51 1.5-2 .88-.51 1.9-.75 2.92-.7 1.66 0 2.84.39 3.55 1.23a5.77 5.77 0 0 1 1.11 3.85v.62h-2.37V5.3c0-.65-.05-1.29-.16-1.93-.06-.4-.3-.76-.63-1a2.5 2.5 0 0 0-1.5-.38 2.42 2.42 0 0 0-1.58.46 1.75 1.75 0 0 0-.63 1.23c-.1.69-.16 1.38-.16 2.08v6.54c-.06 1 .1 2 .47 2.92.32.62.95.85 1.9.85a1.96 1.96 0 0 0 1.9-.93c.41-.97.6-2.02.55-3.07v-1.23h-2.3V9.08h4.59v8.69h-1.58l-.24-2c-.2.67-.64 1.25-1.22 1.66-.6.4-1.3.6-2.02.57a4.05 4.05 0 0 1-3.4-1.54ZM94.68 11.62 90.8.3h2.37l2.76 8.46L98.63.3H101l-3.87 11.3v6.16h-2.37v-6.15h-.08Z" />
      </g>
      <defs>
        <path fill="#fff" d="M0 0h101v18H0z" />
      </defs>
    </symbol>

    <symbol viewBox="0 0 27 17" id="icon-vk" fill="currentColor" xmlns="http://www.w3.org/2000/svg">
      <path
        d="M0 2.34C0 1.48.52 1.02 1.55.96l3.97.02c.26 0 .44.13.53.38.4 1.26.86 2.34 1.37 3.25.5.92 1.17 1.97 1.99 3.16.07.15.18.23.34.23.13 0 .22-.06.3-.18l.07-.28.03-4.35c0-.3-.07-.5-.23-.6-.15-.1-.43-.18-.83-.23-.32-.05-.48-.23-.48-.55 0-.07 0-.12.02-.15C9.01.57 10.07.03 11.83.03l1.5-.03C14 0 14.55.16 15 .48c.44.32.67.82.67 1.5V7.7c.12.08.24.12.34.12.27 0 .5-.15.7-.45 1.95-2.58 3-4.31 3.17-5.18 0-.02.01-.06.05-.13.12-.25.33-.47.61-.65.29-.19.53-.31.75-.38a.55.55 0 0 1 .24-.05h4.13l.26.03c.36 0 .63.16.83.47.07.1.12.21.15.33a2.4 2.4 0 0 1 .06.55v.18a6.11 6.11 0 0 1-.94 2.2c-.5.78-1.15 1.62-1.93 2.53-.79.9-1.27 1.5-1.47 1.78-.16.2-.24.39-.24.56 0 .13.07.28.21.45l3.9 4.63c.2.26.31.56.31.88 0 .38-.16.7-.48.95-.32.25-.7.4-1.14.43l-.46.02h-4.04c-.02 0-.06 0-.11.02a.86.86 0 0 1-.1.01c-.4 0-.76-.16-1.1-.48-.12-.13-.96-1.12-2.5-2.97a1.39 1.39 0 0 0-.38-.32 38.47 38.47 0 0 0-.53 2.24l-.08.42a1.4 1.4 0 0 1-1.12 1.06l-.37.02h-2.61c-1.48 0-2.95-.63-4.41-1.9a19.3 19.3 0 0 1-3.96-4.95A47.51 47.51 0 0 1 .13 3.07 1.92 1.92 0 0 1 0 2.34Zm16.01 6.51c-.37 0-.7-.1-1.01-.29a.9.9 0 0 1-.45-.79V2c0-.34-.1-.58-.27-.72-.18-.14-.49-.21-.93-.21l-1.52.05c-.76 0-1.34.12-1.73.37.78.36 1.17.93 1.17 1.71v4.43a1.5 1.5 0 0 1-.53 1.04c-.32.28-.68.42-1.07.42-.53 0-.94-.24-1.22-.73a26.16 26.16 0 0 1-3.1-5.63l-.23-.66-3.55-.02c-.23 0-.36.01-.38.03-.03.03-.04.1-.04.22 0 .15.01.3.05.48l.56 1.4c1.49 3.64 3.11 6.51 4.86 8.6 1.75 2.1 3.47 3.15 5.16 3.15h2.66c.1 0 .19-.03.24-.09.05-.06.1-.17.13-.34l.06-.25.5-2.21c.15-.3.27-.5.38-.6.2-.2.42-.28.69-.28.43 0 .86.24 1.3.73l2.27 2.71c.14.22.3.33.45.33h4.4c.53 0 .8-.13.8-.38a.47.47 0 0 0-.08-.25l-3.87-4.55c-.3-.35-.45-.73-.45-1.13 0-.4.14-.8.43-1.16.23-.34.68-.9 1.34-1.67.67-.78 1.25-1.51 1.75-2.19.5-.68.82-1.3.98-1.85l.08-.33a.37.37 0 0 1-.02-.16c0-.07-.01-.14-.03-.19h-4.18c-.27.1-.48.25-.64.45L20.8 3c-.45 1.16-1.6 2.94-3.5 5.36-.36.33-.8.5-1.3.5Z"
        fill="#666" />
    </symbol>

    <symbol viewBox="0 0 24 19" id="icon-youtube" fill="currentColor" xmlns="http://www.w3.org/2000/svg">
      <path
        d="m15.85 8.8-5.24-3.5a.65.65 0 0 0-1.01.55v6.98a.65.65 0 0 0 1.01.54l5.24-3.49a.65.65 0 0 0 0-1.09Zm-4.94 2.8V7.08l3.4 2.27-3.4 2.27Zm12.48-8.56a2.4 2.4 0 0 0-1.45-1.63C18.22-.02 12.25 0 12 0S5.78-.02 2.06 1.4A2.4 2.4 0 0 0 .61 3.05 25.32 25.32 0 0 0 0 9.34c0 3.26.33 5.22.61 6.3a2.4 2.4 0 0 0 1.45 1.63c3.72 1.43 9.69 1.4 9.94 1.4h.08c.75 0 6.31-.04 9.86-1.4a2.4 2.4 0 0 0 1.45-1.64c.28-1.07.61-3.03.61-6.3 0-3.25-.33-5.22-.61-6.29Zm-1.27 12.27a1.1 1.1 0 0 1-.65.74c-3.5 1.34-9.4 1.32-9.47 1.32-.07 0-5.98.02-9.47-1.32a1.09 1.09 0 0 1-.65-.74c-.27-1-.57-2.85-.57-5.97 0-3.12.3-4.97.57-5.97a1.1 1.1 0 0 1 .65-.74C6.03 1.29 11.93 1.3 12 1.3c.07 0 5.98-.02 9.47 1.32a1.1 1.1 0 0 1 .65.74c.27 1 .57 2.85.57 5.97 0 3.12-.3 4.96-.57 5.97Z"
        fill="#666" />
    </symbol>

    <symbol viewBox="0 0 20 18" id="icon-telegram" fill="currentColor" xmlns="http://www.w3.org/2000/svg">
      <path fill-rule="evenodd" clip-rule="evenodd"
        d="M19.46.15c.18.15.27.38.23.61l-2.63 15.76a.66.66 0 0 1-1.01.44l-7.88-5.25a.66.66 0 0 1-.15-.96l2.61-3.26-4.36 2.9a.66.66 0 0 1-.65.05L.36 7.8a.66.66 0 0 1 .08-1.2L18.82.03a.66.66 0 0 1 .64.11ZM2.33 7.32 5.86 9.1l7.56-5.04a.66.66 0 0 1 .88.96l-4.8 6 6.43 4.3 2.28-13.66L2.33 7.32Z"
        fill="#666" />
    </symbol>

    <symbol id="icon-logo-academy" viewBox="0 0 27 34" fill="none" xmlns="http://www.w3.org/2000/svg">
      <path
        d="M13.64.02 13.5 0 0 1.4v24.61L13.5 34 27 26.01V1.41L13.64 0Zm11.6 25L13.5 31.96 1.77 25.02v-10.1l11.68 6.93.02 1.25-8.02-4.75v1.23l8.04 4.8.02 1.3-8.05-4.76v1.22l8.04 4.81 8.12-4.83V16.9l3.62-2.15v10.26Zm0-11.57L22 15.33l-1.48.88-7.06-4.19-.01 1.23 6.04 3.57-.06.03-.13.07-.86.5-4.98-2.95-.01 1.22 3.93 2.33-.93.61-.02.01-2.97-1.74-.01 1.23 1.94 1.13-1.98 1.19L1.8 13.58l11.63-6.96 11.8 6.83Zm0-1.22L13.43 5.3 1.77 12.22V2.99L13.5 1.76 25.23 3v9.24Z"
        fill="#666" />
    </symbol>

    <symbol id="icon-arrow" viewBox="0 0 24 12" preserveAspectRatio="none" fill="currentColor"
      xmlns="http://www.w3.org/2000/svg">
      <path stroke="#000" stroke-width="2" d="M0 6h18" />
      <path d="m24 6-6.75 5.2V.8L24 6Z" fill="#000" />
    </symbol>

    <symbol viewBox="0 0 19 14" id="icon-letter" fill="none" xmlns="http://www.w3.org/2000/svg">
      <path stroke="#222" stroke-width="1.3"
        d="M.65 6v8M17.65 6v8M0 13.35h18M0 1.35h18M17.35 3.18 9 9.68.65 3.18V1.65h16.7v1.53Z" />
    </symbol>

    <symbol viewBox="0 0 20 21" id="icon-phone" fill="none" xmlns="http://www.w3.org/2000/svg">
      <g clip-path="url(#a)" fill="#000">
        <path
          d="M17.9 9.75H9.4v1.2h8.5l-2.1 2.11.9.9 3.1-3.1a.75.75 0 0 0 0-.9l-3.1-3.12-.9.9 2.1 2.01ZM8.1 19.79v-6.22a.65.65 0 0 0-.6-.6H3.1a1.23 1.23 0 0 0 1.2 1.2h2.5v5.02H3.1a1.78 1.78 0 0 1-1.9-1.71V3.43a1.78 1.78 0 0 1 1.7-1.8h3.9v5.01H4.4a1.22 1.22 0 0 0-1.2 1.2h4.4a.65.65 0 0 0 .6-.6V.92a.86.86 0 0 0-.7-.6H3.1A3 3 0 0 0 0 3.23v13.95a2.9 2.9 0 0 0 2.9 3.1h4.6a.5.5 0 0 0 .6-.5Z" />
      </g>
      <defs>
        <clipPath id="a">
          <path fill="#fff" transform="translate(0 .32)" d="M0 0h20v20.07H0z" />
        </clipPath>
      </defs>
    </symbol>

    <symbol viewBox="0 0 113 16" id="icon-logo-academy-name" fill="currentColor" xmlns="http://www.w3.org/2000/svg">
      <path
        d="M.28 12V.55H1.8v4.7h5.95V.55h1.52V12H7.75V6.6H1.8V12H.28Zm14.43 0V1.9h-3.77V.55h9.08V1.9h-3.8V12h-1.5Zm6.82 0V.55h2.28l2.71 8.1.55 1.7c.13-.42.33-1.03.61-1.83L30.42.55h2.04V12H31V2.41L27.67 12H26.3L23 2.25V12h-1.47Zm13.31 0V.55h1.52v10.1H42V12h-7.16Zm10.68 0L49.92.55h1.63L56.25 12h-1.73l-1.34-3.47h-4.79L47.13 12h-1.6Zm3.3-4.7h3.9l-1.2-3.17c-.37-.97-.64-1.76-.82-2.38-.14.73-.35 1.46-.61 2.19L48.83 7.3ZM62.7 8.96l1.38.18a3.6 3.6 0 0 1-1.16 2.24c-.62.54-1.39.8-2.3.8a3.58 3.58 0 0 1-2.73-1.1c-.7-.75-1.04-1.81-1.04-3.2 0-.9.15-1.68.45-2.35.3-.67.75-1.17 1.35-1.5.61-.35 1.27-.51 1.98-.51.9 0 1.64.22 2.22.68.57.46.94 1.1 1.1 1.94l-1.37.21a2.26 2.26 0 0 0-.7-1.26 1.77 1.77 0 0 0-1.19-.42c-.7 0-1.28.26-1.73.77-.44.5-.66 1.3-.66 2.4 0 1.12.21 1.93.64 2.43.43.5.98.76 1.67.76.55 0 1.01-.17 1.38-.5.37-.35.6-.87.7-1.57Zm8 2.02c-.52.44-1.03.75-1.51.93-.48.19-1 .28-1.55.28-.9 0-1.6-.22-2.1-.67a2.22 2.22 0 0 1-.73-1.7 2.27 2.27 0 0 1 1-1.93c.3-.2.64-.36 1.01-.46.28-.07.7-.14 1.25-.21 1.14-.14 1.97-.3 2.51-.49v-.36c0-.58-.12-.98-.39-1.21-.36-.32-.9-.48-1.6-.48-.66 0-1.15.12-1.47.35-.31.23-.54.64-.7 1.23l-1.37-.19c.12-.59.33-1.06.62-1.42.28-.37.7-.64 1.24-.84.54-.2 1.17-.3 1.88-.3s1.29.09 1.73.26c.44.16.77.37.97.63.21.25.36.57.44.95.05.24.07.67.07 1.3v1.87c0 1.31.03 2.14.09 2.49.06.34.18.67.36.99h-1.47c-.15-.3-.24-.63-.28-1.02Zm-.12-3.14c-.51.2-1.28.38-2.3.53-.57.08-.98.17-1.22.28a1.21 1.21 0 0 0-.75 1.12c0 .38.14.7.42.94.29.25.7.38 1.25.38.54 0 1.02-.12 1.44-.36.43-.24.74-.56.93-.97.15-.32.23-.79.23-1.4v-.52Zm9 4.16v-1.05a2.58 2.58 0 0 1-2.33 1.24c-.66 0-1.27-.18-1.83-.55a3.64 3.64 0 0 1-1.28-1.52c-.3-.66-.46-1.41-.46-2.26 0-.83.14-1.58.42-2.25a3.26 3.26 0 0 1 3.09-2.1 2.74 2.74 0 0 1 2.29 1.15V.55h1.4V12h-1.3Zm-4.45-4.14c0 1.06.22 1.86.67 2.38.45.53.98.8 1.58.8.62 0 1.14-.26 1.57-.76.43-.5.65-1.27.65-2.3 0-1.14-.22-1.97-.66-2.5a2.02 2.02 0 0 0-3.19-.03c-.41.5-.62 1.31-.62 2.4Zm13.65 1.47 1.45.18c-.23.85-.65 1.5-1.27 1.97s-1.42.7-2.38.7a3.82 3.82 0 0 1-2.89-1.11 4.4 4.4 0 0 1-1.06-3.15c0-1.4.36-2.48 1.08-3.25a3.65 3.65 0 0 1 2.8-1.15c1.1 0 2 .37 2.71 1.13a4.5 4.5 0 0 1 1.06 3.19l-.01.37h-6.19c.05.91.31 1.61.77 2.1a2.3 2.3 0 0 0 1.74.72c.51 0 .95-.13 1.32-.4.36-.28.65-.7.87-1.3Zm-4.62-2.28h4.63a2.81 2.81 0 0 0-.53-1.57 2.16 2.16 0 0 0-1.74-.8c-.65 0-1.2.2-1.64.64a2.58 2.58 0 0 0-.72 1.73ZM91.99 12V3.7h1.26v1.17a2.92 2.92 0 0 1 2.52-1.35c.61 0 1.11.12 1.5.38.4.25.68.61.84 1.07a2.98 2.98 0 0 1 2.56-1.45c.83 0 1.46.22 1.9.68.44.46.66 1.16.66 2.1V12h-1.4V6.77c0-.56-.04-.96-.14-1.2a1.15 1.15 0 0 0-.49-.6 1.96 1.96 0 0 0-2.3.36c-.38.38-.57 1-.57 1.85V12h-1.4V6.6c0-.62-.12-1.08-.35-1.4-.23-.3-.6-.47-1.13-.47-.4 0-.76.1-1.1.32-.33.2-.57.51-.72.91-.16.4-.23.98-.23 1.74V12H92Zm13.27 3.2-.16-1.32c.3.08.58.12.8.12.32 0 .57-.05.76-.16.18-.1.34-.25.46-.43.09-.14.23-.5.43-1.05l.12-.34-3.15-8.32h1.52l1.73 4.8c.22.62.42 1.26.6 1.93.16-.65.35-1.28.57-1.9l1.78-4.83h1.4l-3.15 8.44c-.34.91-.6 1.54-.79 1.88-.25.47-.54.8-.86 1.02-.32.22-.7.33-1.16.33-.27 0-.57-.06-.9-.17Z"
        fill="#444" />
    </symbol>
  </svg>
