<svg width="113" height="16" viewBox="0 0 113 16" fill="none" xmlns="http://www.w3.org/2000/svg"><path d="M.28 12V.55H1.8v4.7h5.95V.55h1.52V12H7.75V6.6H1.8V12H.28Zm14.43 0V1.9h-3.77V.55h9.08V1.9h-3.8V12h-1.5Zm6.82 0V.55h2.28l2.71 8.1.55 1.7c.13-.42.33-1.03.61-1.83L30.42.55h2.04V12H31V2.41L27.67 12H26.3L23 2.25V12h-1.47Zm13.31 0V.55h1.52v10.1H42V12h-7.16Zm10.68 0L49.92.55h1.63L56.25 12h-1.73l-1.34-3.47h-4.79L47.13 12h-1.6Zm3.3-4.7h3.9l-1.2-3.17c-.37-.97-.64-1.76-.82-2.38-.14.73-.35 1.46-.61 2.19L48.83 7.3ZM62.7 8.96l1.38.18a3.6 3.6 0 0 1-1.16 2.24c-.62.54-1.39.8-2.3.8a3.58 3.58 0 0 1-2.73-1.1c-.7-.75-1.04-1.81-1.04-3.2 0-.9.15-1.68.45-2.35.3-.67.75-1.17 1.35-1.5.61-.35 1.27-.51 1.98-.51.9 0 1.64.22 2.22.68.57.46.94 1.1 1.1 1.94l-1.37.21a2.26 2.26 0 0 0-.7-1.26 1.77 1.77 0 0 0-1.19-.42c-.7 0-1.28.26-1.73.77-.44.5-.66 1.3-.66 2.4 0 1.12.21 1.93.64 2.43.43.5.98.76 1.67.76.55 0 1.01-.17 1.38-.5.37-.35.6-.87.7-1.57Zm8 2.02c-.52.44-1.03.75-1.51.93-.48.19-1 .28-1.55.28-.9 0-1.6-.22-2.1-.67a2.22 2.22 0 0 1-.73-1.7 2.27 2.27 0 0 1 1-1.93c.3-.2.64-.36 1.01-.46.28-.07.7-.14 1.25-.21 1.14-.14 1.97-.3 2.51-.49v-.36c0-.58-.12-.98-.39-1.21-.36-.32-.9-.48-1.6-.48-.66 0-1.15.12-1.47.35-.31.23-.54.64-.7 1.23l-1.37-.19c.12-.59.33-1.06.62-1.42.28-.37.7-.64 1.24-.84.54-.2 1.17-.3 1.88-.3s1.29.09 1.73.26c.44.16.77.37.97.63.21.25.36.57.44.95.05.24.07.67.07 1.3v1.87c0 1.31.03 2.14.09 2.49.06.34.18.67.36.99h-1.47c-.15-.3-.24-.63-.28-1.02Zm-.12-3.14c-.51.2-1.28.38-2.3.53-.57.08-.98.17-1.22.28a1.21 1.21 0 0 0-.75 1.12c0 .38.14.7.42.94.29.25.7.38 1.25.38.54 0 1.02-.12 1.44-.36.43-.24.74-.56.93-.97.15-.32.23-.79.23-1.4v-.52Zm9 4.16v-1.05a2.58 2.58 0 0 1-2.33 1.24c-.66 0-1.27-.18-1.83-.55a3.64 3.64 0 0 1-1.28-1.52c-.3-.66-.46-1.41-.46-2.26 0-.83.14-1.58.42-2.25a3.26 3.26 0 0 1 3.09-2.1 2.74 2.74 0 0 1 2.29 1.15V.55h1.4V12h-1.3Zm-4.45-4.14c0 1.06.22 1.86.67 2.38.45.53.98.8 1.58.8.62 0 1.14-.26 1.57-.76.43-.5.65-1.27.65-2.3 0-1.14-.22-1.97-.66-2.5a2.02 2.02 0 0 0-3.19-.03c-.41.5-.62 1.31-.62 2.4Zm13.65 1.47 1.45.18c-.23.85-.65 1.5-1.27 1.97s-1.42.7-2.38.7a3.82 3.82 0 0 1-2.89-1.11 4.4 4.4 0 0 1-1.06-3.15c0-1.4.36-2.48 1.08-3.25a3.65 3.65 0 0 1 2.8-1.15c1.1 0 2 .37 2.71 1.13a4.5 4.5 0 0 1 1.06 3.19l-.01.37h-6.19c.05.91.31 1.61.77 2.1a2.3 2.3 0 0 0 1.74.72c.51 0 .95-.13 1.32-.4.36-.28.65-.7.87-1.3Zm-4.62-2.28h4.63a2.81 2.81 0 0 0-.53-1.57 2.16 2.16 0 0 0-1.74-.8c-.65 0-1.2.2-1.64.64a2.58 2.58 0 0 0-.72 1.73ZM91.99 12V3.7h1.26v1.17a2.92 2.92 0 0 1 2.52-1.35c.61 0 1.11.12 1.5.38.4.25.68.61.84 1.07a2.98 2.98 0 0 1 2.56-1.45c.83 0 1.46.22 1.9.68.44.46.66 1.16.66 2.1V12h-1.4V6.77c0-.56-.04-.96-.14-1.2a1.15 1.15 0 0 0-.49-.6 1.96 1.96 0 0 0-2.3.36c-.38.38-.57 1-.57 1.85V12h-1.4V6.6c0-.62-.12-1.08-.35-1.4-.23-.3-.6-.47-1.13-.47-.4 0-.76.1-1.1.32-.33.2-.57.51-.72.91-.16.4-.23.98-.23 1.74V12H92Zm13.27 3.2-.16-1.32c.3.08.58.12.8.12.32 0 .57-.05.76-.16.18-.1.34-.25.46-.43.09-.14.23-.5.43-1.05l.12-.34-3.15-8.32h1.52l1.73 4.8c.22.62.42 1.26.6 1.93.16-.65.35-1.28.57-1.9l1.78-4.83h1.4l-3.15 8.44c-.34.91-.6 1.54-.79 1.88-.25.47-.54.8-.86 1.02-.32.22-.7.33-1.16.33-.27 0-.57-.06-.9-.17Z" fill="#444"/></svg>